<svg width="542" height="592" viewBox="0 0 542 592" fill="none" xmlns="http://www.w3.org/2000/svg">
<g clip-path="url(#clip0_29_25225)">
<g clip-path="url(#clip1_29_25225)">
<g clip-path="url(#clip2_29_25225)">
<g filter="url(#filter0_f_29_25225)">
<path d="M338.853 208.693L152.085 255.508L213.056 498.754L399.824 451.94L338.853 208.693Z" fill="#221B48"/>
</g>
<mask id="mask0_29_25225" style="mask-type:luminance" maskUnits="userSpaceOnUse" x="94" y="55" width="337" height="444">
<path d="M323.947 56.3585L104.367 111.398C97.3366 113.16 93.066 120.287 94.8281 127.318L185.364 488.512C187.126 495.542 194.253 499.812 201.284 498.05L420.863 443.011C427.894 441.249 432.164 434.121 430.402 427.091L339.867 65.8971C338.105 58.8669 330.977 54.5963 323.947 56.3585Z" fill="white"/>
</mask>
<g mask="url(#mask0_29_25225)">
<path d="M323.947 56.3585L104.367 111.398C97.3366 113.16 93.066 120.287 94.8281 127.318L185.364 488.512C187.126 495.542 194.253 499.812 201.284 498.05L420.863 443.011C427.894 441.249 432.164 434.121 430.402 427.091L339.867 65.8971C338.105 58.8669 330.977 54.5963 323.947 56.3585Z" fill="url(#paint0_linear_29_25225)"/>
<g filter="url(#filter1_f_29_25225)">
<path d="M281.968 367.902C331.179 355.567 361.073 305.674 348.738 256.463C336.403 207.251 286.51 177.357 237.298 189.692C188.087 202.027 158.193 251.921 170.528 301.132C182.863 350.343 232.756 380.238 281.968 367.902Z" fill="url(#paint1_linear_29_25225)"/>
</g>
<path d="M152.225 124.752C152.563 124.413 152.996 124.186 153.458 124.071C154.158 123.895 154.763 124.082 155.276 124.647C155.79 125.211 156.204 126.122 156.531 127.427C156.839 128.652 156.891 129.603 156.676 130.299C156.462 130.995 156.013 131.429 155.281 131.613C154.883 131.712 154.465 131.733 154.059 131.665C153.566 131.586 153.108 131.447 152.65 131.241L151.362 126.101C151.557 125.596 151.848 125.134 152.225 124.752ZM146.751 120.458L146.883 120.984L147.027 120.947C147.675 120.836 148.081 120.835 148.232 120.966C148.379 121.082 148.559 121.527 148.746 122.275L151.542 133.429L152.799 133.114L152.707 131.936L152.803 131.913C153.216 132.215 153.709 132.43 154.211 132.54C154.692 132.64 155.198 132.631 155.691 132.508C156.773 132.236 157.532 131.556 157.973 130.481C158.414 129.407 158.425 128.102 158.043 126.574C157.7 125.206 157.142 124.195 156.365 123.528C155.59 122.86 154.726 122.653 153.751 122.881C153.162 123.029 152.614 123.335 152.201 123.777C151.787 124.219 151.461 124.808 151.223 125.544L149.763 119.72L146.755 120.474L146.751 120.458Z" fill="white"/>
<path d="M164.266 128.6C163.757 129.201 163.288 129.555 162.843 129.667C162.62 129.722 162.389 129.747 162.158 129.703C161.928 129.659 161.704 129.58 161.517 129.441C161.108 129.154 160.817 128.737 160.709 128.24C160.534 127.539 160.649 126.919 161.054 126.377C161.464 125.852 162.128 125.466 163.035 125.238L163.401 125.147L164.266 128.6ZM162.958 124.733C161.241 125.164 160.107 125.769 159.547 126.569C159.062 127.266 158.918 128.046 159.134 128.905C159.318 129.637 159.712 130.198 160.328 130.567C160.627 130.746 160.945 130.869 161.296 130.917C161.646 130.964 161.996 130.944 162.326 130.845C163.233 130.617 164.02 129.913 164.7 128.71C165.15 129.629 165.747 129.987 166.511 129.795C166.861 129.708 167.175 129.544 167.461 129.338L167.258 128.729C167.143 128.809 167.004 128.86 166.865 128.912C166.562 128.988 166.336 128.892 166.132 128.622C165.945 128.348 165.754 127.855 165.574 127.139L164.558 123.081C164.102 121.267 162.953 120.591 161.091 121.058C160.152 121.293 159.213 121.799 158.243 122.584L158.661 124.255L159.711 123.991L159.672 123.832C159.588 123.227 159.636 122.81 159.795 122.567C160.068 122.177 160.47 121.89 160.952 121.786C161.97 121.531 162.659 122.119 163.018 123.552L163.301 124.681L162.967 124.765L162.958 124.733Z" fill="white"/>
<path d="M168.731 129.002L176.193 127.132L176.037 126.512L170.452 127.911L173.86 118.568L173.733 118.058L166.652 119.833L167.151 121.822L167.994 121.611L167.95 121.436C167.922 121.257 167.874 121.066 167.815 120.827C167.726 120.477 167.738 120.254 167.854 120.175C167.965 120.079 168.419 119.932 169.198 119.736L172.015 119.03L168.567 128.486L168.694 128.995L168.731 129.002Z" fill="white"/>
<path d="M181.435 124.296C180.926 124.897 180.457 125.252 180.011 125.363C179.789 125.419 179.558 125.443 179.327 125.4C179.096 125.356 178.873 125.276 178.686 125.137C178.277 124.851 177.986 124.433 177.878 123.936C177.702 123.236 177.818 122.615 178.239 122.07C178.66 121.525 179.313 121.158 180.235 120.927L180.601 120.835L181.463 124.272L181.435 124.296ZM180.111 120.434C178.393 120.865 177.243 121.474 176.683 122.274C176.182 122.975 176.056 123.75 176.271 124.61C176.454 125.342 176.848 125.902 177.466 126.272C177.764 126.451 178.098 126.57 178.432 126.621C178.766 126.673 179.132 126.649 179.462 126.549C180.37 126.322 181.158 125.617 181.836 124.415C182.287 125.334 182.884 125.692 183.648 125.5C183.998 125.412 184.312 125.249 184.598 125.042L184.395 124.433C184.28 124.513 184.141 124.565 184.001 124.617C183.699 124.693 183.472 124.597 183.269 124.327C183.066 124.056 182.891 123.559 182.711 122.843L181.694 118.786C181.239 116.972 180.089 116.296 178.227 116.763C177.289 116.998 176.335 117.508 175.38 118.288L175.799 119.959L176.849 119.696L176.809 119.536C176.725 118.932 176.772 118.514 176.931 118.272C177.206 117.881 177.608 117.595 178.088 117.491C179.107 117.236 179.811 117.82 180.171 119.252L180.454 120.382L180.136 120.461L180.111 120.434Z" fill="white"/>
<path d="M190.186 122.103C189.677 122.704 189.208 123.058 188.763 123.17C188.54 123.225 188.305 123.234 188.078 123.206C187.847 123.162 187.624 123.083 187.437 122.944C187.028 122.657 186.737 122.24 186.629 121.743C186.453 121.043 186.569 120.422 186.975 119.88C187.384 119.355 188.048 118.969 188.955 118.741L189.321 118.65L190.186 122.103ZM188.879 118.236C187.161 118.667 186.027 119.272 185.467 120.072C184.966 120.773 184.838 121.549 185.055 122.408C185.238 123.14 185.632 123.701 186.248 124.07C186.547 124.249 186.865 124.372 187.216 124.42C187.566 124.467 187.916 124.447 188.246 124.348C189.153 124.12 189.94 123.416 190.62 122.213C191.07 123.132 191.667 123.49 192.431 123.298C192.781 123.211 193.095 123.048 193.381 122.841L193.178 122.232C193.063 122.312 192.924 122.363 192.785 122.415C192.498 122.487 192.256 122.395 192.052 122.125C191.865 121.851 191.674 121.358 191.494 120.642L190.478 116.584C190.022 114.77 188.873 114.094 187.011 114.561C186.072 114.797 185.133 115.302 184.163 116.087L184.582 117.757L185.632 117.494L185.592 117.335C185.508 116.73 185.556 116.312 185.715 116.07C185.989 115.68 186.391 115.393 186.872 115.289C187.891 115.034 188.578 115.623 188.938 117.055L189.221 118.184L188.903 118.264L188.879 118.236Z" fill="white"/>
<path d="M194.972 121.562C194.896 121.734 194.538 121.925 193.915 122.132L193.771 122.168L193.902 122.693L198.548 121.529L198.417 121.004L198.083 121.087C197.451 121.195 197.045 121.195 196.877 121.068C196.711 120.94 196.535 120.511 196.343 119.748L195.223 115.276C195.493 114.262 196.017 113.657 196.798 113.461C196.989 113.413 197.127 113.429 197.183 113.517C197.255 113.6 197.382 113.906 197.574 114.399L197.609 114.543L198.485 114.323L197.859 111.825C197.668 111.805 197.485 111.817 197.31 111.861C196.164 112.148 195.401 113.016 195.023 114.481L194.593 112.762L191.586 113.516L191.717 114.041L191.86 114.005C192.513 113.909 192.902 113.913 193.066 114.024C193.229 114.135 193.392 114.585 193.58 115.333L194.776 120.106C194.967 120.87 195.016 121.332 194.94 121.503L194.972 121.562Z" fill="white"/>
<path d="M112.86 134.619C113.166 134.288 113.567 134.069 114.012 133.958C114.681 133.79 115.254 133.985 115.752 134.554C116.25 135.122 116.652 136.053 116.975 137.342C117.282 138.567 117.334 139.518 117.156 140.222C116.973 140.911 116.539 141.34 115.86 141.528C115.478 141.624 115.092 141.636 114.702 141.564C114.24 141.477 113.783 141.338 113.373 141.119L112.085 135.98C112.264 135.478 112.522 135.025 112.883 134.647L112.86 134.619ZM108.467 134.435L108.598 134.96L108.742 134.924C109.395 134.828 109.8 134.828 109.948 134.943C110.095 135.058 110.27 135.488 110.461 136.252L112.999 146.506L114.574 146.112L113.484 141.768C113.898 142.07 114.36 142.292 114.866 142.419C115.332 142.523 115.82 142.518 116.282 142.403C117.332 142.139 118.06 141.467 118.449 140.388C118.854 139.306 118.869 138.017 118.486 136.489C118.143 135.121 117.597 134.091 116.837 133.419C116.077 132.747 115.242 132.517 114.303 132.752C113.73 132.896 113.213 133.194 112.816 133.632C112.418 134.07 112.107 134.655 111.886 135.387L111.459 133.685L108.451 134.439L108.467 134.435Z" fill="white"/>
<path d="M125.267 138.375C124.758 138.976 124.288 139.33 123.843 139.442C123.621 139.498 123.389 139.522 123.159 139.478C122.928 139.435 122.705 139.355 122.518 139.216C122.108 138.93 121.818 138.512 121.71 138.015C121.534 137.315 121.65 136.694 122.055 136.153C122.464 135.627 123.129 135.241 124.036 135.014L124.401 134.922L125.267 138.375ZM123.959 134.509C122.241 134.939 121.108 135.545 120.547 136.345C120.047 137.045 119.919 137.821 120.135 138.68C120.319 139.412 120.713 139.973 121.329 140.343C121.628 140.522 121.946 140.645 122.297 140.692C122.647 140.74 122.997 140.72 123.327 140.62C124.234 140.393 125.021 139.688 125.701 138.486C126.151 139.405 126.748 139.763 127.512 139.571C127.862 139.483 128.175 139.32 128.462 139.113L128.259 138.504C128.143 138.584 128.004 138.636 127.865 138.687C127.579 138.759 127.336 138.668 127.132 138.398C126.946 138.123 126.754 137.63 126.575 136.914L125.558 132.856C125.103 131.043 123.953 130.367 122.092 130.833C121.152 131.069 120.214 131.575 119.243 132.359L119.662 134.03L120.712 133.767L120.673 133.607C120.589 133.003 120.637 132.585 120.795 132.342C121.069 131.952 121.471 131.666 121.953 131.562C122.971 131.306 123.66 131.895 124.018 133.327L124.302 134.457L123.984 134.536L123.959 134.509Z" fill="white"/>
<path d="M126.977 130.285C127.629 130.19 127.935 130.197 128.126 130.353C128.441 130.595 128.505 130.849 128.696 131.613L130.388 138.563L132.027 138.152L129.693 129.047L126.686 129.8L126.817 130.325L126.977 130.285Z" fill="white"/>
<path d="M128.936 125.753L127.344 126.152L127.759 127.806L129.35 127.408L128.936 125.753Z" fill="white"/>
<path d="M138.104 135.817C137.846 136.203 137.444 136.49 136.979 136.589C136.374 136.741 135.762 136.725 135.168 136.519C134.292 136.197 133.15 135.012 133.15 135.012L133.493 136.381C134.524 137.255 135.877 137.39 136.975 137.114C138.073 136.839 138.789 136.389 139.297 135.721C139.544 135.422 139.723 135.056 139.794 134.666C139.881 134.272 139.865 133.87 139.754 133.492C139.606 132.904 139.327 132.466 138.897 132.168C138.467 131.87 137.791 131.667 136.864 131.544L136.02 131.418C135.161 131.295 134.568 131.156 134.25 130.965C134.095 130.886 133.943 130.755 133.84 130.611C133.736 130.468 133.661 130.301 133.616 130.126C133.561 129.904 133.54 129.689 133.568 129.462C133.596 129.235 133.68 129.028 133.799 128.829C133.918 128.63 134.081 128.471 134.268 128.339C134.455 128.208 134.67 128.12 134.893 128.065C135.37 127.945 135.867 127.973 136.321 128.163C136.496 128.255 136.616 128.394 136.707 128.557C136.878 128.903 137.022 129.273 137.118 129.655L137.153 129.798L138.076 129.567L137.534 127.402C136.575 127.288 135.592 127.348 134.65 127.567C133.742 127.795 133.054 128.221 132.586 128.846C132.382 129.117 132.236 129.407 132.164 129.729C132.093 130.052 132.073 130.378 132.125 130.72C132.173 131.046 132.284 131.357 132.475 131.647C132.663 131.921 132.894 132.167 133.161 132.354C133.686 132.696 134.438 132.931 135.432 133.053L136.36 133.176C136.953 133.247 137.394 133.39 137.677 133.573C137.96 133.756 138.143 134.082 138.25 134.512C138.306 134.735 138.33 134.965 138.298 135.176C138.267 135.387 138.188 135.61 138.068 135.809L138.104 135.817Z" fill="white"/>
<path d="M146.174 133.134C145.665 133.736 145.196 134.09 144.751 134.201C144.528 134.257 144.293 134.265 144.067 134.237C143.836 134.194 143.614 134.114 143.426 133.975C143.016 133.689 142.726 133.272 142.617 132.774C142.442 132.074 142.557 131.453 142.963 130.912C143.372 130.387 144.036 130 144.943 129.773L145.309 129.682L146.174 133.134ZM144.868 129.268C143.149 129.699 142.015 130.304 141.455 131.104C140.954 131.805 140.828 132.58 141.043 133.44C141.226 134.172 141.62 134.732 142.221 135.106C142.52 135.285 142.854 135.404 143.189 135.455C143.538 135.503 143.889 135.483 144.219 135.383C145.126 135.156 145.913 134.451 146.593 133.249C147.043 134.168 147.639 134.526 148.404 134.334C148.753 134.247 149.068 134.083 149.354 133.876L149.151 133.268C149.035 133.347 148.896 133.399 148.757 133.451C148.471 133.523 148.228 133.431 148.025 133.161C147.838 132.886 147.646 132.393 147.467 131.677L146.45 127.62C145.995 125.806 144.845 125.13 142.984 125.597C142.045 125.832 141.106 126.338 140.135 127.123L140.554 128.793L141.605 128.53L141.565 128.371C141.481 127.766 141.528 127.348 141.687 127.106C141.961 126.716 142.363 126.429 142.845 126.325C143.863 126.07 144.552 126.658 144.91 128.09L145.194 129.22L144.875 129.3L144.868 129.268Z" fill="white"/>
<path d="M208.247 113.128C208.108 113.112 207.973 113.112 207.845 113.144C207.718 113.176 207.583 113.244 207.483 113.319C207.368 113.399 207.292 113.503 207.225 113.637C207.158 113.773 207.121 113.9 207.122 114.036C207.11 114.326 207.242 114.648 207.512 114.986C207.783 115.324 208.07 115.523 208.352 115.571C208.491 115.586 208.627 115.586 208.754 115.554C208.881 115.522 209.016 115.455 209.116 115.379C209.232 115.299 209.303 115.18 209.375 115.06C209.446 114.941 209.462 114.802 209.477 114.663C209.489 114.372 209.358 114.05 209.067 113.7C208.797 113.362 208.529 113.175 208.247 113.128Z" fill="white"/>
<path d="M206.989 104.801C202.056 106.038 199.071 110.997 200.3 115.898C201.528 120.799 206.515 123.759 211.432 122.527C216.349 121.294 219.349 116.331 218.121 111.431C216.892 106.53 211.906 103.569 206.989 104.801ZM207.362 116.952C207.295 117.29 207.1 117.592 206.834 117.811C206.682 117.951 206.488 118.05 206.285 118.118C206.078 118.17 205.863 118.19 205.672 118.17C205.25 118.107 204.868 117.864 204.518 117.411C204.303 117.16 204.144 116.862 204.048 116.548C203.98 116.278 203.988 115.971 204.091 115.708C204.194 115.446 204.374 115.215 204.6 115.04C204.85 114.825 205.157 114.697 205.491 114.681C205.814 114.685 206.116 114.812 206.355 115.023L205.969 115.441C205.818 115.309 205.627 115.222 205.424 115.222C205.237 115.218 205.066 115.278 204.926 115.398C204.811 115.477 204.735 115.581 204.664 115.7C204.608 115.816 204.573 115.943 204.557 116.082C204.541 116.357 204.689 116.675 204.963 117.029C205.238 117.383 205.525 117.581 205.795 117.649C205.923 117.684 206.054 117.669 206.181 117.637C206.309 117.605 206.428 117.541 206.527 117.465C206.698 117.338 206.805 117.159 206.837 116.948C206.869 116.737 206.813 116.514 206.666 116.264L207.15 115.973C207.346 116.279 207.418 116.633 207.354 116.988L207.362 116.952ZM209.931 115.056C209.827 115.319 209.649 115.55 209.411 115.745C209.244 115.888 209.048 115.988 208.845 116.056C208.639 116.108 208.428 116.143 208.217 116.112C207.799 116.064 207.397 115.81 207.047 115.356C206.653 114.863 206.497 114.378 206.588 113.933C206.66 113.542 206.879 113.2 207.193 112.969C207.36 112.826 207.539 112.73 207.742 112.663C207.948 112.611 208.159 112.575 208.37 112.606C208.792 112.67 209.17 112.896 209.513 113.318C209.783 113.656 209.947 113.97 210.002 114.261C210.07 114.531 210.022 114.814 209.919 115.076L209.931 115.056ZM214.318 111.707L212.968 110.033C212.864 109.89 212.753 109.783 212.61 109.683C212.51 109.624 212.403 109.6 212.291 109.628C212.18 109.656 212.052 109.688 211.957 109.779C211.873 109.851 211.794 109.939 211.731 110.022C211.671 110.122 211.647 110.229 211.623 110.337C211.595 110.563 211.691 110.81 211.914 111.092L213.165 112.639L212.715 113.006L211.334 111.272C211.166 111.077 211.015 110.946 210.852 110.902C210.689 110.858 210.533 110.914 210.362 111.042C210.235 111.141 210.148 111.265 210.089 111.432C210.025 111.583 210.033 111.75 210.093 111.921C210.184 112.152 210.303 112.359 210.467 112.538L211.574 113.917L211.124 114.284L208.982 111.608L209.392 111.285L209.691 111.667C209.674 111.468 209.706 111.257 209.778 111.07C209.865 110.879 209.993 110.712 210.148 110.588C210.315 110.445 210.509 110.345 210.74 110.321C210.939 110.305 211.118 110.345 211.281 110.456C211.245 109.975 211.388 109.601 211.726 109.33C211.993 109.111 212.259 109.027 212.521 109.063C212.784 109.099 213.027 109.257 213.273 109.568L214.747 111.397L214.298 111.763L214.318 111.707Z" fill="white"/>
<path fill-rule="evenodd" clip-rule="evenodd" d="M306.786 93.3494L309.492 92.6712L307.194 89.2391L306.803 93.3452L306.786 93.3494ZM310.296 93.9241L306.653 94.8373L306.395 97.5908L304.534 98.0574L305.745 87.3027L307.559 86.8478L313.699 95.7601L311.822 96.2306L310.296 93.9241Z" fill="white"/>
<path fill-rule="evenodd" clip-rule="evenodd" d="M270.492 100.959C271.526 100.699 272.17 100.098 271.962 99.271C271.755 98.4437 271.023 98.1536 270.036 98.4011L268.986 98.6642L269.616 101.178L270.492 100.959ZM276.915 104.93C276.915 104.93 276.565 105.152 275.674 105.376C272.333 106.213 272.593 102.461 270.572 102.968L270.095 103.088L270.945 106.477L268.351 107.127L265.886 97.2933L269.625 96.3562C272.298 95.6862 273.878 96.254 274.457 98.5612C274.824 100.025 274.005 101.008 273.519 101.434C274.55 102.174 274.798 103.363 275.959 103.072L276.405 102.961L276.903 104.949L276.915 104.93Z" fill="white"/>
<path fill-rule="evenodd" clip-rule="evenodd" d="M281.401 101.708C282.244 101.497 282.554 101.114 282.359 100.335C282.163 99.5552 281.547 99.3885 280.783 99.5798L279.527 99.8947L280.065 102.043L281.401 101.708ZM280.102 97.8733C280.961 97.6581 281.196 97.2441 281.04 96.6236C280.884 96.0031 280.363 95.8124 279.44 96.0437L278.613 96.2511L279.084 98.1286L280.102 97.8733ZM284.061 98.2172C284.633 98.4795 285.199 98.9803 285.418 99.8556C285.941 101.94 284.565 103.063 282.735 103.521L277.993 104.71L275.529 94.8763L279.746 93.8194C281.782 93.3092 283.163 93.7578 283.641 95.6672C284.064 97.3539 283.061 97.8758 282.521 98.0112L282.528 98.0432C282.879 97.9552 283.476 97.9747 284.064 98.2331" fill="white"/>
<path fill-rule="evenodd" clip-rule="evenodd" d="M287.349 102.365L284.884 92.5315L287.478 91.8811L289.433 99.6779L293.442 98.6728L293.952 100.71L287.349 102.365Z" fill="white"/>
<path fill-rule="evenodd" clip-rule="evenodd" d="M299.799 97.722C300.834 97.4628 301.613 96.9293 301.318 95.7518C301.043 94.6537 300.112 94.4475 299.029 94.7189L297.136 95.1933L297.886 98.1849L299.795 97.7061L299.799 97.722ZM298.556 93.5015C299.685 93.2183 299.915 92.5858 299.708 91.7584C299.5 90.931 298.812 90.5454 297.587 90.8525L296.139 91.2154L296.817 93.9203L298.551 93.4859L298.556 93.5015ZM296.451 100.083L293.986 90.25L297.629 89.3368C299.666 88.8262 301.055 89.3068 301.51 91.1208C301.965 92.9345 300.978 93.4523 300.485 93.576L300.493 93.608C301.146 93.4442 302.84 93.5944 303.315 95.4879C303.825 97.5248 302.342 98.6235 300.481 99.0902L296.439 100.103L296.451 100.083Z" fill="white"/>
<path fill-rule="evenodd" clip-rule="evenodd" d="M320.684 94.0092L315.111 88.371L316.77 94.9903L314.972 95.4408L312.503 85.5916L314.381 85.1211L320.026 90.9781L318.311 84.136L320.093 83.689L322.561 93.5386L320.684 94.0092Z" fill="white"/>
<path fill-rule="evenodd" clip-rule="evenodd" d="M332.633 89.5935C331.344 89.9167 330.778 87.7923 329.448 87.0096C329.325 86.9222 328.673 86.4768 327.789 86.4614L330.499 81.0807L328.208 81.6553L325.486 86.988L324.389 82.6125L322.591 83.0629L325.055 92.8966L326.854 92.4457L326.164 89.6929L326.954 88.1251L327.066 88.0972C329.182 87.5666 329.531 91.8594 332.427 91.1332C333.015 90.986 333.362 90.8146 333.362 90.8146L333.031 89.4937L332.617 89.5974L332.633 89.5935Z" fill="white"/>
<path fill-rule="evenodd" clip-rule="evenodd" d="M244.312 93.0617L243.155 88.4473L238.382 89.6436L240.695 98.8727C241.247 96.6202 242.51 94.5787 244.312 93.0617Z" fill="white"/>
<path fill-rule="evenodd" clip-rule="evenodd" d="M244.643 94.3825C242.201 96.7193 241.034 100.225 241.903 103.694L244.544 114.227L249.317 113.031L246.677 102.497C246.079 100.111 247.398 97.6827 249.681 96.8061L248.505 92.1123C247.018 92.5863 245.709 93.3711 244.647 94.398" fill="white"/>
<path fill-rule="evenodd" clip-rule="evenodd" d="M249.694 91.7971L250.875 96.5068C253.301 96.2032 255.61 97.7213 256.208 100.108C256.854 102.686 255.248 105.321 252.623 105.979C251.191 106.338 249.774 106.017 248.656 105.265L250.064 110.882C251.27 111.036 252.543 110.988 253.799 110.673C259.067 109.352 262.278 104.083 260.982 98.9117C259.686 93.7403 254.766 90.8472 249.694 91.7971Z" fill="white"/>
<path d="M229.685 179.56C230.475 182.71 233.773 184.606 237.036 183.788L263.083 177.259C266.345 176.441 268.36 173.214 267.57 170.063L257.882 131.414C257.093 128.264 253.794 126.368 250.531 127.186L224.484 133.715C221.222 134.532 219.207 137.76 219.997 140.91L229.685 179.56Z" fill="white"/>
<path d="M257.532 132.527C256.651 129.012 253.087 126.877 249.572 127.758L225.577 133.773C222.063 134.653 219.927 138.217 220.808 141.733L230.013 178.457C230.895 181.972 234.459 184.107 237.973 183.226L261.968 177.212C265.483 176.33 267.619 172.766 266.737 169.251L257.532 132.527Z" fill="url(#paint2_linear_29_25225)"/>
<path d="M253.351 156.987L253.51 157.623C255.054 157.237 256.368 158.091 256.981 159.121L257.1 159.328L263.878 157.629L263.719 156.992L257.402 158.575C256.625 157.435 255.117 156.544 253.335 156.99" fill="#1D1D1B"/>
<path d="M229.418 153.871L227.827 154.27L230.292 164.103L231.883 163.704L229.418 153.871Z" fill="#1D1D1B"/>
<path d="M258.219 146.652L256.627 147.051L259.092 156.884L260.683 156.485L258.219 146.652Z" fill="#1D1D1B"/>
<path d="M234.475 154.345C236.257 153.898 237.402 152.461 237.234 150.982L247.434 148.425C247.979 149.726 249.675 150.349 251.568 149.875C253.334 149.432 254.245 147.935 254.407 146.558L260.724 144.975L260.564 144.339L253.786 146.038L253.778 146.276C253.719 147.458 252.984 148.843 251.424 149.234C249.769 149.649 248.241 149.085 247.958 147.955C247.555 146.348 248.112 145.667 248.14 145.643L248.26 145.512L244.18 129.234L243.542 129.394L247.547 145.369C247.352 145.672 247.03 146.48 247.274 147.788L237.091 150.341C236.704 149.068 236.155 148.495 235.887 148.309L231.879 132.317L231.243 132.477L235.319 148.739L235.455 148.806C235.455 148.806 236.162 149.204 236.566 150.811C236.872 152.036 235.891 153.313 234.332 153.704C232.772 154.095 231.459 153.105 230.822 152.047L230.702 151.841L223.908 153.544L224.067 154.18L230.384 152.597C231.188 153.782 232.761 154.792 234.495 154.357" fill="#1D1D1B"/>
<path d="M240.176 165.481C240.278 165.218 240.382 164.618 240.142 163.46L250.533 160.855C250.871 161.87 251.532 162.347 251.846 162.522L255.851 178.497L256.487 178.338L252.407 162.06L252.256 161.997C252.256 161.997 251.38 161.607 251.073 160.382L250.994 160.064L239.983 162.824C239.461 161.348 237.877 160.561 236.158 160.992C234.44 161.423 233.545 163.118 233.391 164.594L227.074 166.177L227.234 166.814L234.012 165.115L234.02 164.876C234.056 163.937 234.599 162.059 236.302 161.632C238.004 161.206 239.146 162.12 239.426 163.234C239.809 164.761 239.57 165.227 239.57 165.227L239.467 165.354L243.547 181.631L244.184 181.472L240.176 165.481Z" fill="#1D1D1B"/>
<path d="M267.57 170.063L257.882 131.414C257.093 128.264 253.794 126.368 250.531 127.186L224.484 133.715C221.222 134.532 219.207 137.76 219.997 140.91L229.685 179.56C230.474 182.71 233.758 184.61 237.036 183.788L263.083 177.259C266.345 176.441 268.36 173.214 267.57 170.063ZM236.832 182.976C234.016 183.682 231.175 182.061 230.496 179.356L220.809 140.707C220.13 138.002 221.871 135.232 224.688 134.526L250.735 127.997C253.551 127.291 256.393 128.912 257.071 131.618L266.758 170.267C267.437 172.971 265.696 175.742 262.879 176.448L236.832 182.976Z" fill="#1D1D1B"/>
<path d="M313.432 255.47L314.321 259.018L309.229 260.294L313.066 275.601L309.343 276.535L305.506 261.228L300.446 262.496L299.557 258.948L313.432 255.47ZM280.227 280.062L288.166 278.071L289.056 281.62L277.392 284.543L272.667 265.688L284.202 262.797L285.092 266.344L277.279 268.303L278.284 272.313L285.428 270.522L286.306 274.023L279.161 275.814L280.227 280.062ZM252.921 291.084C250.821 291.61 248.954 291.452 247.302 290.597C245.655 289.759 244.588 288.335 244.085 286.33L240.907 273.649L244.598 272.724L247.705 285.118C247.952 286.105 248.418 286.817 249.118 287.25C249.835 287.679 250.798 287.743 252.007 287.439C253.216 287.137 254.02 286.63 254.433 285.918C254.863 285.202 254.953 284.35 254.706 283.364L251.599 270.968L255.322 270.036L258.501 282.717C259 284.705 258.73 286.465 257.677 287.997C256.62 289.513 255.037 290.552 252.921 291.084ZM219.317 295.329C220.956 294.918 222.14 294.046 222.904 292.705C223.646 291.352 223.801 289.808 223.366 288.074C222.931 286.339 222.067 285.052 220.778 284.225C219.484 283.382 218.012 283.175 216.373 283.587L212.602 284.532L215.546 296.275L219.317 295.329ZM215.48 280.022C218.073 279.372 220.449 279.741 222.622 281.124C224.811 282.503 226.244 284.512 226.914 287.184C227.584 289.857 227.268 292.304 225.988 294.554C224.724 296.798 222.788 298.247 220.211 298.894L212.716 300.772L207.989 281.917L215.484 280.038L215.48 280.022Z" fill="white"/>
<path d="M247.874 255.566C249.859 255.068 251.066 253.055 250.569 251.068C250.07 249.083 248.057 247.876 246.071 248.374C244.085 248.872 242.878 250.886 243.377 252.871C243.874 254.857 245.887 256.064 247.874 255.566Z" fill="#7054A3"/>
<path d="M265.854 251.059C267.84 250.561 269.047 248.548 268.548 246.562C268.051 244.576 266.037 243.37 264.051 243.868C262.065 244.365 260.859 246.378 261.356 248.365C261.854 250.35 263.868 251.557 265.854 251.059Z" fill="#3957A6"/>
</g>
</g>
</g>
</g>
<defs>
<filter id="filter0_f_29_25225" x="108.164" y="164.772" width="335.581" height="377.903" filterUnits="userSpaceOnUse" color-interpolation-filters="sRGB">
<feFlood flood-opacity="0" result="BackgroundImageFix"/>
<feBlend mode="normal" in="SourceGraphic" in2="BackgroundImageFix" result="shape"/>
<feGaussianBlur stdDeviation="21.9603" result="effect1_foregroundBlur_29_25225"/>
</filter>
<filter id="filter1_f_29_25225" x="134.942" y="154.106" width="249.382" height="249.382" filterUnits="userSpaceOnUse" color-interpolation-filters="sRGB">
<feFlood flood-opacity="0" result="BackgroundImageFix"/>
<feBlend mode="normal" in="SourceGraphic" in2="BackgroundImageFix" result="shape"/>
<feGaussianBlur stdDeviation="16.4039" result="effect1_foregroundBlur_29_25225"/>
</filter>
<linearGradient id="paint0_linear_29_25225" x1="321.922" y1="493.214" x2="163.889" y2="-15.4325" gradientUnits="userSpaceOnUse">
<stop stop-color="#3C3F40"/>
<stop offset="0.19" stop-color="#292A2C"/>
<stop offset="0.43" stop-color="#18191B"/>
<stop offset="0.69" stop-color="#0F0F11"/>
<stop offset="1" stop-color="#0C0C0E"/>
</linearGradient>
<linearGradient id="paint1_linear_29_25225" x1="164.926" y1="251.238" x2="356.197" y2="309.837" gradientUnits="userSpaceOnUse">
<stop stop-color="#29272E"/>
<stop offset="0.239583" stop-color="#29074F"/>
<stop offset="0.432292" stop-color="#422C54"/>
<stop offset="0.567708" stop-color="#383E7B"/>
<stop offset="0.744792" stop-color="#2F427F"/>
<stop offset="0.869792" stop-color="#2F3D5A"/>
<stop offset="1" stop-color="#111319"/>
</linearGradient>
<linearGradient id="paint2_linear_29_25225" x1="258.429" y1="172.368" x2="223.16" y2="147.745" gradientUnits="userSpaceOnUse">
<stop stop-color="#D6AE28"/>
<stop offset="0.53" stop-color="#FFF156"/>
<stop offset="1" stop-color="#D6AE28"/>
</linearGradient>
<clipPath id="clip0_29_25225">
<rect width="378" height="479" fill="white" transform="translate(0.749268 154.389) rotate(-24.0716)"/>
</clipPath>
<clipPath id="clip1_29_25225">
<rect width="378" height="479" fill="white" transform="translate(0.749268 154.389) rotate(-24.0716)"/>
</clipPath>
<clipPath id="clip2_29_25225">
<rect width="378" height="479" fill="white" transform="translate(0.749268 154.389) rotate(-24.0716)"/>
</clipPath>
</defs>
</svg>
